<?xml version="1.0" encoding="UTF-8"?>
<svg width="84px" height="50px" viewBox="0 0 84 50" version="1.1" xmlns="http://www.w3.org/2000/svg" xmlns:xlink="http://www.w3.org/1999/xlink">
    <!-- Generator: sketchtool 49 (51002) - http://www.bohemiancoding.com/sketch -->
    <title>EDA24CB7-3AF3-41F8-817D-2167C0F48EC1</title>
    <desc>Created with sketchtool.</desc>
    <defs></defs>
    <g id="UI-OCEAN--presentation-site-long" stroke="none" stroke-width="1" fill="none" fill-rule="evenodd">
        <g id="try-yourself-loaded" transform="translate(-898.000000, -42.000000)">
            <g id="07-twitter-empty">
                <g id="top-bar">
                    <g id="name-entered" transform="translate(522.000000, 34.000000)">
                        <g id="btn-go" transform="translate(376.000000, 8.000000)">
                            <rect id="frame" fill="#00B089" x="0" y="0" width="84" height="50"></rect>
                            <path d="M53.698,14.294 C53.517,14.112 53.268,14 52.991,14 C52.44,14 51.991,14.447 51.991,15 C51.991,15.276 52.103,15.526 52.285,15.707 L60.575,23.998 L21,23.998 C20.448,23.998 20,24.444 20,24.998 C20,25.551 20.448,25.997 21,25.997 L60.575,25.997 L52.285,34.288 C52.103,34.47 51.991,34.719 51.991,34.995 C51.991,35.548 52.44,35.995 52.991,35.995 C53.268,35.995 53.517,35.884 53.698,35.701 L63.695,25.704 C63.877,25.524 63.988,25.273 63.988,24.998 C63.988,24.722 63.877,24.473 63.695,24.291 L53.698,14.294 Z" id="Fill-441" fill="#FFFFFF"></path>
                        </g>
                    </g>
                </g>
            </g>
        </g>
    </g>
</svg>