<?xml version="1.0" encoding="UTF-8"?>
<svg width="44px" height="44px" viewBox="0 0 44 44" version="1.1" xmlns="http://www.w3.org/2000/svg" xmlns:xlink="http://www.w3.org/1999/xlink">
    <!-- Generator: sketchtool 49 (51002) - http://www.bohemiancoding.com/sketch -->
    <title>FB7F2E8E-A369-4038-A345-CFDA2D838FD4</title>
    <desc>Created with sketchtool.</desc>
    <defs></defs>
    <g id="UI-OCEAN--presentation-site-long" stroke="none" stroke-width="1" fill="none" fill-rule="evenodd">
        <g id="OCEAN-site-02-page-05" transform="translate(-563.000000, -1880.000000)" fill="#FFFFFF">
            <g id="03-social-media-black" transform="translate(-7.000000, 1536.000000)">
                <path d="M611.999454,383.9991 C611.999454,385.104376 611.10321,385.9996 609.999909,385.9996 L574.000091,385.9996 C572.89679,385.9996 572.000546,385.104376 572.000546,383.9991 L572.000546,348.0011 C572.000546,346.896824 572.89679,346.0006 574.000091,346.0006 L609.999909,346.0006 C611.10321,346.0006 611.999454,346.896824 611.999454,348.0011 L611.999454,383.9991 Z M609.999909,344.0001 L574.000091,344.0001 C571.790488,344.0001 570,345.790548 570,348.0011 L570,383.9991 C570,386.208652 571.790488,388.0001 574.000091,388.0001 L609.999909,388.0001 C612.209512,388.0001 614,386.208652 614,383.9991 L614,348.0011 C614,345.790548 612.209512,344.0001 609.999909,344.0001 Z M602.447849,358.295674 C601.655633,358.76079 600.775393,359.096874 599.843139,359.274919 C599.092934,358.491723 598.027644,358.002601 596.848322,358.002601 C594.580704,358.002601 592.743203,359.811053 592.743203,362.03961 C592.743203,362.355689 592.780213,362.662766 592.849232,362.96084 C589.439302,362.791798 586.416477,361.183396 584.393926,358.739785 C584.038829,359.336934 583.837774,360.031108 583.837774,360.770293 C583.837774,362.172643 584.560971,363.408952 585.662272,364.132133 C584.990088,364.111128 584.356916,363.931083 583.804765,363.627007 C583.802764,363.645011 583.802764,363.661015 583.802764,363.678019 C583.802764,365.635509 585.21815,367.265916 587.094662,367.638009 C586.750568,367.731033 586.387469,367.778044 586.013367,367.778044 C585.750296,367.778044 585.493225,367.754038 585.243157,367.707027 C585.764299,369.311428 587.277712,370.47872 589.075202,370.511728 C587.668819,371.595999 585.901337,372.23916 583.977812,372.23916 C583.645722,372.23916 583.319633,372.223156 583.000546,372.186147 C584.81504,373.329432 586.972629,373.9996 589.290261,373.9996 C596.836319,373.9996 600.963445,367.846061 600.963445,362.508727 C600.963445,362.333683 600.961444,362.157639 600.952442,361.984596 C601.75366,361.416454 602.44985,360.705276 603,359.897074 C602.264799,360.215154 601.474584,360.432208 600.643357,360.530233 C601.490588,360.031108 602.140766,359.24091 602.447849,358.295674 Z" id="icon-twitter"></path>
            </g>
        </g>
    </g>
</svg>