<?xml version="1.0" encoding="UTF-8"?>
<svg width="44px" height="44px" viewBox="0 0 44 44" version="1.1" xmlns="http://www.w3.org/2000/svg" xmlns:xlink="http://www.w3.org/1999/xlink">
    <!-- Generator: sketchtool 49 (51002) - http://www.bohemiancoding.com/sketch -->
    <title>FD394AD2-95F5-4BFB-8C2D-CFA8DEBDA414</title>
    <desc>Created with sketchtool.</desc>
    <defs></defs>
    <g id="UI-OCEAN--presentation-site-long" stroke="none" stroke-width="1" fill="none" fill-rule="evenodd">
        <g id="OCEAN-site-02-page-05" transform="translate(-636.000000, -1880.000000)" fill="#FFFFFF">
            <g id="03-social-media-black" transform="translate(-7.000000, 1536.000000)">
                <path d="M666.988542,361.249312 C666.988542,360.44011 667.071565,360.007002 668.315904,360.007002 L669.980358,360.007002 L669.980358,356.99825 L667.318632,356.99825 C664.11976,356.99825 662.995453,358.503626 662.995453,361.035259 L662.995453,362.988747 L661.000909,362.988747 L661.000909,365.9995 L662.995453,365.9995 L662.995453,375.00175 L666.984541,375.00175 L666.984541,365.9995 L669.646267,365.9995 L669.999363,362.988747 L666.984541,362.988747 L666.988542,361.249312 Z M684.999454,383.999 C684.999454,385.105276 684.105211,385.9995 682.999909,385.9995 L647.000091,385.9995 C645.89679,385.9995 645.000546,385.105276 645.000546,383.999 L645.000546,348.001 C645.000546,346.896724 645.89679,346.0005 647.000091,346.0005 L682.999909,346.0005 C684.105211,346.0005 684.999454,346.896724 684.999454,348.001 L684.999454,383.999 Z M682.999909,344 L647.000091,344 C644.790488,344 643,345.790448 643,348.001 L643,383.999 C643,386.208552 644.790488,388 647.000091,388 L682.999909,388 C685.209512,388 687,386.208552 687,383.999 L687,348.001 C687,345.790448 685.209512,344 682.999909,344 Z" id="icon-fb"></path>
            </g>
        </g>
    </g>
</svg>