<?xml version="1.0" encoding="UTF-8"?>
<svg width="44px" height="45px" viewBox="0 0 44 45" version="1.1" xmlns="http://www.w3.org/2000/svg" xmlns:xlink="http://www.w3.org/1999/xlink">
    <!-- Generator: sketchtool 49 (51002) - http://www.bohemiancoding.com/sketch -->
    <title>EEF2BC74-3D83-4F3E-9CE4-FB07C3CA8C16</title>
    <desc>Created with sketchtool.</desc>
    <defs></defs>
    <g id="UI-OCEAN--presentation-site-long" stroke="none" stroke-width="1" fill="none" fill-rule="evenodd">
        <g id="OCEAN-site-02-page-05" transform="translate(-453.000000, -297.000000)" fill="#FFFFFF">
            <g id="01-intro" transform="translate(-7.000000, 0.000000)">
                <path d="M495.8228,334.0625 C493.6248,331.3495 490.9028,329.8545 488.6768,328.8595 C488.1838,328.6365 487.8678,328.4035 487.6868,328.1805 C491.0268,328.1185 493.6398,326.6475 493.7618,326.5785 C494.1078,326.3805 494.3018,325.9985 494.2608,325.6025 C494.2218,325.2405 493.9898,324.9305 493.6578,324.7905 C493.5178,324.6885 491.8918,323.3735 491.8918,316.0855 C491.8918,307.8355 488.7398,303.6515 482.5198,303.6515 C477.2658,303.6515 471.8978,305.0705 471.8978,315.5865 C471.8978,323.2215 470.6228,324.6945 470.4258,324.8755 C470.0888,324.9755 469.8228,325.2495 469.7368,325.6005 C469.6348,326.0325 469.8258,326.4765 470.2068,326.6985 C473.0198,328.3325 475.2318,328.4785 476.4188,328.3865 C476.2738,328.5085 475.9808,328.6925 475.3988,328.8835 C472.6428,329.7815 469.6998,331.8805 468.0548,333.9725 C464.3218,330.3395 461.9938,325.2685 461.9938,319.6475 C461.9938,308.6035 470.9448,299.6535 481.9888,299.6535 C493.0308,299.6535 501.9828,308.6035 501.9828,319.6475 C501.9828,325.3175 499.6128,330.4245 495.8228,334.0625 M481.9888,339.6425 C477.2818,339.6425 472.9668,338.0065 469.5518,335.2885 C470.9098,333.5035 473.6248,331.5655 476.0198,330.7835 C477.4638,330.3135 478.2988,329.6025 478.4998,328.6735 C478.7588,327.5005 477.8648,326.6325 477.7628,326.5375 C477.5018,326.2965 477.1258,326.2155 476.7878,326.3175 C476.7098,326.3395 475.0768,326.7935 472.3948,325.5825 C473.2028,324.1815 473.8958,321.3135 473.8958,315.5865 C473.8958,306.4135 477.9748,305.6535 482.5198,305.6535 C485.6848,305.6535 489.8928,306.7325 489.8928,316.0855 C489.8928,321.4035 490.7298,324.0585 491.5578,325.3845 C490.4258,325.8165 488.6238,326.3195 486.6668,326.1505 C486.2308,326.1055 485.8378,326.3525 485.6648,326.7455 C485.2878,327.5985 485.2638,329.5225 487.8598,330.6835 C489.8838,331.5895 492.3608,332.9485 494.3098,335.3745 C490.9128,338.0405 486.6418,339.6425 481.9888,339.6425 M481.9888,297.6535 C469.8408,297.6535 459.9938,307.5015 459.9938,319.6475 C459.9938,331.7955 469.8408,341.6425 481.9888,341.6425 C494.1348,341.6425 503.9828,331.7955 503.9828,319.6475 C503.9828,307.5015 494.1348,297.6535 481.9888,297.6535" id="icon-profile"></path>
            </g>
        </g>
    </g>
</svg>