<?xml version="1.0" encoding="UTF-8"?>
<svg width="44px" height="32px" viewBox="0 0 44 32" version="1.1" xmlns="http://www.w3.org/2000/svg" xmlns:xlink="http://www.w3.org/1999/xlink">
    <!-- Generator: sketchtool 49 (51002) - http://www.bohemiancoding.com/sketch -->
    <title>498EC75D-7834-4BCF-9262-7B1838442167</title>
    <desc>Created with sketchtool.</desc>
    <defs></defs>
    <g id="UI-OCEAN--presentation-site-long" stroke="none" stroke-width="1" fill="none" fill-rule="evenodd">
        <g id="OCEAN-site-02-page-05" transform="translate(-41.000000, -1142.000000)" fill="#000000">
            <g id="02-behavior" transform="translate(-7.000000, 768.000000)">
                <path d="M82.7824861,392.0005 L83.2286078,388.0005 L88.4210239,388.0005 L87.5317814,392.0005 L82.7824861,392.0005 Z M86.199418,398.001 L82.1163044,398.001 L82.5624261,394.001 L87.08666,394.001 L86.199418,398.001 Z M84.0008184,404.0005 C82.8965172,404.0005 82.0002728,403.104276 82.0002728,402 C82.0002728,400.896724 82.8965172,400.0005 84.0008184,400.0005 C85.1051196,400.0005 86.001364,400.896724 86.001364,402 C86.001364,403.104276 85.1051196,404.0005 84.0008184,404.0005 Z M81.4381195,386 L75.9996363,386 L75.9996363,382 L81.8822406,382 L81.4381195,386 Z M80.7719378,392.0005 L75.9996363,392.0005 L75.9996363,388.0005 L81.2160589,388.0005 L80.7719378,392.0005 Z M80.1057561,398.001 L75.9996363,398.001 L75.9996363,394.001 L80.5498772,394.001 L80.1057561,398.001 Z M74.0010912,386 L68.5616077,386 L68.1174866,382 L74.0010912,382 L74.0010912,386 Z M74.0010912,392.0005 L69.2277894,392.0005 L68.7836683,388.0005 L74.0010912,388.0005 L74.0010912,392.0005 Z M74.0010912,398.001 L69.8939711,398.001 L69.4518505,394.001 L74.0010912,394.001 L74.0010912,398.001 Z M65.9999091,404.0005 C64.8956079,404.0005 64.001364,403.104276 64.001364,402 C64.001364,400.896724 64.8956079,400.0005 65.9999091,400.0005 C67.1052105,400.0005 67.9994544,400.896724 67.9994544,402 C67.9994544,403.104276 67.1052105,404.0005 65.9999091,404.0005 Z M62.6930072,394.001 L67.4393016,394.001 L67.8834228,398.001 L63.7662999,398.001 L62.6930072,394.001 Z M62.156861,392.0005 L61.0835682,388.0005 L66.7711194,388.0005 L67.2172411,392.0005 L62.156861,392.0005 Z M59.4741293,382 L66.1049377,382 L66.5490588,386 L60.5484223,386 L59.4741293,382 Z M83.8947895,382 L89.7533873,382 L88.865145,386 L83.4506684,386 L83.8947895,382 Z M87.9648995,399.24131 L87.9709012,399.24131 L91.9719924,381.243811 L91.9529872,381.23881 C91.9719924,381.16079 92,381.084771 92,381.00075 C92,380.447612 91.5528781,380.0005 90.9997272,380.0005 L58.9389834,380.0005 L57.5215968,374.713178 L57.5065927,374.717179 C57.3805583,374.307077 57.0134582,374 56.5613349,374 L49.0002728,374 C48.4481222,374 48,374.448112 48,375.00025 C48,375.553388 48.4481222,376.0005 49.0002728,376.0005 L55.7961262,376.0005 L62.0418296,399.287322 L62.0438301,399.287322 C62.1288533,399.569392 62.3349095,399.79845 62.6019824,399.915479 C62.2268801,400.523631 62.0008184,401.233808 62.0008184,402 C62.0008184,404.209552 63.7913067,406 65.9999091,406 C68.2095117,406 70,404.209552 70,402 C70,401.268817 69.7879422,400.591648 69.4458489,400.0005 L80.5538783,400.0005 C80.211785,400.591648 79.9997272,401.268817 79.9997272,402 C79.9997272,404.209552 81.7902155,406 84.0008184,406 C86.2094208,406 87.9999091,404.209552 87.9999091,402 C87.9999091,401.233808 87.7738474,400.523631 87.3987451,399.915479 C87.6798218,399.793448 87.8878785,399.544386 87.9648995,399.24131 Z" id="icon-cart"></path>
            </g>
        </g>
    </g>
</svg>