<?xml version="1.0" encoding="UTF-8"?>
<svg width="420px" height="590px" viewBox="0 0 420 590" version="1.1" xmlns="http://www.w3.org/2000/svg" xmlns:xlink="http://www.w3.org/1999/xlink">
    <!-- Generator: sketchtool 49 (51002) - http://www.bohemiancoding.com/sketch -->
    <title>2272A30D-249F-4EF0-B7C7-1152228F0BD1</title>
    <desc>Created with sketchtool.</desc>
    <defs></defs>
    <g id="UI-OCEAN--presentation-site-long" stroke="none" stroke-width="1" fill="none" fill-rule="evenodd" opacity="0.5">
        <g id="OCEAN-site-02-page-05" transform="translate(-40.000000, -1609.000000)">
            <g id="03-social-media-black" transform="translate(-7.000000, 1536.000000)">
                <g id="posts" transform="translate(47.000000, 73.000000)">
                    <g id="post-1" fill="#EE4D9B">
                        <circle id="Oval-2" cx="43" cy="40" r="21"></circle>
                        <circle id="Oval-2-Copy" cx="399" cy="31" r="3"></circle>
                        <circle id="Oval-2-Copy-2" cx="389" cy="31" r="3"></circle>
                        <circle id="Oval-2-Copy-3" cx="379" cy="31" r="3"></circle>
                        <rect id="Rectangle" x="80" y="30" width="100" height="10"></rect>
                        <path d="M4,4 L4,396 L416,396 L416,4 L4,4 Z M0,0 L420,0 L420,400 L0,400 L0,0 Z" id="Rectangle-Copy-17" fill-rule="nonzero"></path>
                        <rect id="Rectangle-Copy-4" x="20" y="70" width="380" height="220"></rect>
                        <rect id="Rectangle-Copy-3" x="190" y="30" width="70" height="10"></rect>
                        <rect id="Rectangle-Copy-2" x="80" y="46" width="140" height="6"></rect>
                        <rect id="Rectangle-Copy-5" x="20" y="308" width="70" height="10"></rect>
                        <rect id="Rectangle-Copy-10" x="20" y="324" width="50" height="10"></rect>
                        <rect id="Rectangle-Copy-14" x="60" y="357" width="50" height="16"></rect>
                        <rect id="Rectangle-Copy-15" x="170" y="357" width="90" height="16"></rect>
                        <rect id="Rectangle-Copy-16" x="310" y="357" width="60" height="16"></rect>
                        <rect id="Rectangle-Copy-11" x="80" y="324" width="90" height="10"></rect>
                        <rect id="Rectangle-Copy-12" x="180" y="324" width="100" height="10"></rect>
                        <rect id="Rectangle-Copy-13" x="290" y="324" width="20" height="10"></rect>
                        <rect id="Rectangle-Copy-6" x="100" y="308" width="20" height="10"></rect>
                        <rect id="Rectangle-Copy-7" x="130" y="308" width="60" height="10"></rect>
                        <rect id="Rectangle-Copy-8" x="200" y="308" width="60" height="10"></rect>
                        <rect id="Rectangle-Copy-9" x="270" y="308" width="100" height="10"></rect>
                    </g>
                    <g id="posts-2" transform="translate(0.000000, 410.000000)" fill="#903F98">
                        <circle id="Oval-2" cx="43" cy="40" r="21"></circle>
                        <circle id="Oval-2-Copy" cx="399" cy="31" r="3"></circle>
                        <circle id="Oval-2-Copy-2" cx="389" cy="31" r="3"></circle>
                        <circle id="Oval-2-Copy-3" cx="379" cy="31" r="3"></circle>
                        <rect id="Rectangle" x="80" y="30" width="100" height="10"></rect>
                        <path d="M4,4 L4,176 L416,176 L416,4 L4,4 Z M0,0 L420,0 L420,180 L0,180 L0,0 Z" id="Rectangle-Copy-17" fill-rule="nonzero"></path>
                        <rect id="Rectangle-Copy-3" x="190" y="30" width="70" height="10"></rect>
                        <rect id="Rectangle-Copy-2" x="80" y="46" width="140" height="6"></rect>
                        <rect id="Rectangle-Copy-5" x="20" y="88" width="70" height="10"></rect>
                        <rect id="Rectangle-Copy-10" x="20" y="104" width="50" height="10"></rect>
                        <rect id="Rectangle-Copy-14" x="60" y="137" width="50" height="16"></rect>
                        <rect id="Rectangle-Copy-15" x="170" y="137" width="90" height="16"></rect>
                        <rect id="Rectangle-Copy-16" x="310" y="137" width="60" height="16"></rect>
                        <rect id="Rectangle-Copy-11" x="80" y="104" width="90" height="10"></rect>
                        <rect id="Rectangle-Copy-12" x="180" y="104" width="100" height="10"></rect>
                        <rect id="Rectangle-Copy-13" x="290" y="104" width="20" height="10"></rect>
                        <rect id="Rectangle-Copy-6" x="100" y="88" width="20" height="10"></rect>
                        <rect id="Rectangle-Copy-7" x="130" y="88" width="60" height="10"></rect>
                        <rect id="Rectangle-Copy-8" x="200" y="88" width="60" height="10"></rect>
                        <rect id="Rectangle-Copy-9" x="270" y="88" width="100" height="10"></rect>
                    </g>
                </g>
            </g>
        </g>
    </g>
</svg>