<?xml version="1.0" encoding="UTF-8"?>
<svg width="220px" height="210px" viewBox="0 0 220 210" version="1.1" xmlns="http://www.w3.org/2000/svg" xmlns:xlink="http://www.w3.org/1999/xlink">
    <!-- Generator: sketchtool 49 (51002) - http://www.bohemiancoding.com/sketch -->
    <title>500DCC65-2200-4C0B-A86B-3BFAE43F6E02</title>
    <desc>Created with sketchtool.</desc>
    <defs></defs>
    <g id="UI-OCEAN--presentation-site-long" stroke="none" stroke-width="1" fill="none" fill-rule="evenodd">
        <g id="try-yourself-not-enough-data" transform="translate(-402.000000, -273.000000)" fill="#BEBEBE">
            <g id="try-not-enough-info" transform="translate(402.000000, 273.000000)">
                <path d="M110,9.89580209 L9.37706742,83.2708334 L47.8116076,201.994128 L172.188392,201.994128 L210.622933,83.2708334 L110,9.89580209 Z M110,0 L220,80.2128624 L177.983739,210 L42.0162612,210 L0,80.2128624 L110,0 Z" id="Polygon" fill-rule="nonzero"></path>
                <path d="M92.2,116.7 C92.2,122.4 87.4,127.3 81.6,127.3 C75.8,127.3 71,122.4 71,116.7 C71,110.9 75.8,106 81.6,106 C87.4,106 92.2,110.9 92.2,116.7 Z M120.4,116.7 C120.4,122.4 115.6,127.3 109.8,127.3 C104,127.3 99.2,122.4 99.2,116.7 C99.2,110.9 104,106 109.8,106 C115.6,106 120.4,110.9 120.4,116.7 Z M148.6,116.7 C148.6,122.4 143.8,127.3 138,127.3 C132.2,127.3 127.4,122.4 127.4,116.7 C127.4,110.9 132.2,106 138,106 C143.8,106 148.6,110.9 148.6,116.7 Z" id="…"></path>
            </g>
        </g>
    </g>
</svg>