<?xml version="1.0" encoding="UTF-8"?>
<svg width="220px" height="210px" viewBox="0 0 220 210" version="1.1" xmlns="http://www.w3.org/2000/svg" xmlns:xlink="http://www.w3.org/1999/xlink">
    <!-- Generator: sketchtool 49 (51002) - http://www.bohemiancoding.com/sketch -->
    <title>9CD7C2D6-3E1C-486B-8A33-D31C615421BD</title>
    <desc>Created with sketchtool.</desc>
    <defs></defs>
    <g id="UI-OCEAN--presentation-site-long" stroke="none" stroke-width="1" fill="none" fill-rule="evenodd">
        <g id="OCEAN-site-02-page-05" transform="translate(-402.000000, -4871.000000)" fill="#BEBEBE">
            <g id="07-try-empty" transform="translate(0.000000, 4608.000000)">
                <g id="try-empty" transform="translate(402.000000, 263.000000)">
                    <path d="M110,9.89580209 L9.37706742,83.2708334 L47.8116076,201.994128 L172.188392,201.994128 L210.622933,83.2708334 L110,9.89580209 Z M110,0 L220,80.2128624 L177.983739,210 L42.0162612,210 L0,80.2128624 L110,0 Z" id="Polygon" fill-rule="nonzero"></path>
                    <path d="M103.3,123.3 C101.7,121.1 100.6,117.8 100.6,113.8 C100.6,102.9 111.8,101 111.8,97.9 C111.8,96.7 111,95.8 107.9,95.8 C105.3,95.8 101.7,97.4 99.2,100 L88,87.1 C93.8,80.9 102.4,78 110.2,78 C123.7,78 132.2,84.2 132.2,94.1 C132.2,108.2 118,109.2 118,116 C118,117.7 118.6,119.1 119.1,119.7 L103.3,123.3 Z M110.8,146.9 C105,146.9 100.1,142 100.1,136.2 C100.1,130.4 105,125.5 110.8,125.5 C116.6,125.5 121.5,130.4 121.5,136.2 C121.5,142 116.6,146.9 110.8,146.9 Z" id="?"></path>
                </g>
            </g>
        </g>
    </g>
</svg>