<?xml version="1.0" encoding="UTF-8"?>
<svg width="220px" height="210px" viewBox="0 0 220 210" version="1.1" xmlns="http://www.w3.org/2000/svg" xmlns:xlink="http://www.w3.org/1999/xlink">
    <!-- Generator: sketchtool 49 (51002) - http://www.bohemiancoding.com/sketch -->
    <title>EF1F2664-C3B5-4EDC-8EAC-AF79E342872F</title>
    <desc>Created with sketchtool.</desc>
    <defs></defs>
    <g id="UI-OCEAN--presentation-site-long" stroke="none" stroke-width="1" fill="none" fill-rule="evenodd">
        <g id="try-yourself-not-enough-data-copy" transform="translate(-402.000000, -273.000000)" fill="#BEBEBE">
            <g id="try-error" transform="translate(402.000000, 273.000000)">
                <path d="M110,9.89580209 L9.37706742,83.2708334 L47.8116076,201.994128 L172.188392,201.994128 L210.622933,83.2708334 L110,9.89580209 Z M110,0 L220,80.2128624 L177.983739,210 L42.0162612,210 L0,80.2128624 L110,0 Z" id="Polygon" fill-rule="nonzero"></path>
                <path d="M70.6,125.72 L65.52,125.72 L67.64,119.4 L64.48,119.4 L62.4,125.72 L57.32,125.72 L59.44,119.4 L56,119.4 L57.4,115.04 L60.92,115.04 L62.64,109.76 L59.16,109.76 L60.52,105.44 L64.12,105.44 L66.24,99.04 L71.32,99.04 L69.2,105.44 L72.32,105.44 L74.44,99.04 L79.52,99.04 L77.36,105.44 L80.88,105.44 L79.56,109.76 L75.92,109.76 L74.16,115.04 L77.8,115.04 L76.44,119.4 L72.68,119.4 L70.6,125.72 Z M69.08,115.04 L70.84,109.76 L67.72,109.76 L66,115.04 L69.08,115.04 Z M91.84,129.72 L91.84,126.04 C87.56,125.64 84.44,124.12 82.08,121.96 L86.28,115.96 C88.28,117.88 91.28,119.4 94.88,119.4 C96.4,119.4 97.84,119 97.84,117.96 C97.84,115.4 82.96,118 82.96,107.48 C82.96,103.44 85.96,99.56 91.84,98.8 L91.84,95 L96.96,95 L96.96,98.84 C100.16,99.28 103,100.44 105.36,102.36 L101.04,108.08 C98.72,106.32 95.72,105.44 93.2,105.44 C91.6,105.44 91.16,105.96 91.16,106.64 C91.16,109.16 106,107 106,116.92 C106,122.08 102.64,125.32 96.96,126.04 L96.96,129.72 L91.84,129.72 Z M114.68,112.08 C110.32,112.08 107.56,109.12 107.56,105.4 C107.56,101.64 110.32,98.64 114.68,98.64 C119.08,98.64 121.88,101.64 121.88,105.4 C121.88,109.12 119.08,112.08 114.68,112.08 Z M115.88,125.72 L112,125.72 L129.04,99.04 L132.96,99.04 L115.88,125.72 Z M130.16,126.2 C125.8,126.2 123.04,123.24 123.04,119.52 C123.04,115.76 125.8,112.76 130.16,112.76 C134.52,112.76 137.32,115.76 137.32,119.52 C137.32,123.24 134.52,126.2 130.16,126.2 Z M114.68,107.84 C115.96,107.84 117,107.12 117,105.4 C117,103.6 115.96,102.88 114.68,102.88 C113.44,102.88 112.44,103.6 112.44,105.4 C112.44,107.12 113.44,107.84 114.68,107.84 Z M130.16,121.96 C131.44,121.96 132.48,121.28 132.48,119.52 C132.48,117.72 131.44,117 130.16,117 C128.88,117 127.88,117.72 127.88,119.52 C127.88,121.28 128.88,121.96 130.16,121.96 Z M164.68,125.72 L155.8,125.72 L154.56,124.44 C152.6,125.56 150.4,126.2 147.92,126.2 C142.72,126.2 138.6,123.56 138.6,118.16 C138.6,114.2 141.2,112.12 144.2,110.68 C143.28,108.84 142.72,106.96 142.72,105.24 C142.72,101.6 146.16,98.64 151.24,98.64 C155.32,98.64 159.2,100.88 159.2,104.68 C159.2,108.8 156.08,110.48 152.88,111.84 C153.4,112.56 153.92,113.24 154.4,113.8 L155.84,115.64 C156.68,114.32 157.36,112.88 157.8,111.4 L163.36,114.04 C162.32,116.16 161.08,118.24 159.56,120.08 C161.2,121.92 162.88,123.76 164.68,125.72 Z M149,120.68 C149.6,120.68 150.24,120.56 150.88,120.28 C150.08,119.36 149.36,118.48 148.88,117.84 C148.24,117.04 147.56,116.12 146.92,115.2 C146.4,115.84 146.12,116.56 146.12,117.44 C146.12,119.32 147.44,120.68 149,120.68 Z M149.76,105.44 C149.76,106.2 150.04,107.12 150.52,108.08 C152.08,107.32 153.16,106.44 153.16,105.12 C153.16,104.28 152.48,103.64 151.6,103.64 C150.52,103.64 149.76,104.4 149.76,105.44 Z" id="#$%&amp;"></path>
            </g>
        </g>
    </g>
</svg>