<?xml version="1.0" encoding="UTF-8"?>
<svg width="220px" height="210px" viewBox="0 0 220 210" version="1.1" xmlns="http://www.w3.org/2000/svg" xmlns:xlink="http://www.w3.org/1999/xlink">
    <!-- Generator: sketchtool 49 (51002) - http://www.bohemiancoding.com/sketch -->
    <title>5054DC3B-B5EE-49DF-BA1F-4B7135B0BB12</title>
    <desc>Created with sketchtool.</desc>
    <defs></defs>
    <g id="UI-OCEAN--presentation-site-long" stroke="none" stroke-width="1" fill="none" fill-rule="evenodd">
        <g id="try-yourself-no-account" transform="translate(-402.000000, -273.000000)" fill="#BEBEBE">
            <g id="try-no-account" transform="translate(402.000000, 273.000000)">
                <path d="M110,9.89580209 L9.37706742,83.2708334 L47.8116076,201.994128 L172.188392,201.994128 L210.622933,83.2708334 L110,9.89580209 Z M110,0 L220,80.2128624 L177.983739,210 L42.0162612,210 L0,80.2128624 L110,0 Z" id="Polygon" fill-rule="nonzero"></path>
                <path d="M117.9,120.9 L101.7,120.9 L99,79 L120.4,79 L117.9,120.9 Z M109.8,146.8 C104,146.8 99.2,141.9 99.2,136.2 C99.2,130.4 104,125.5 109.8,125.5 C115.6,125.5 120.4,130.4 120.4,136.2 C120.4,141.9 115.6,146.8 109.8,146.8 Z" id="!"></path>
            </g>
        </g>
    </g>
</svg>